<svg id="Layer_1" data-name="Layer 1" xmlns="http://www.w3.org/2000/svg" viewBox="0 0 192.07 162.45"><defs><style>.cls-1{fill:#ff824c;}.cls-2{fill:#28b873;}.cls-3{fill:#4950ba;}.cls-4{fill:#363636;}.cls-5{fill:#e7404a;}.cls-6{fill:#f5cb39;}.cls-7{fill:#b5333b;}.cls-8{fill:#693d40;}.cls-9{fill:#7e85ef;}.cls-10{fill:#fefefe;}</style></defs><path class="cls-1" d="M147.17,31.62l9.57,5.44v.34l-6,3.4-.52.38v0l-2,.92c-.16-1.46-.32-2.91-.49-4.37Q147.41,34.67,147.17,31.62Z"/><path class="cls-2" d="M65.27,38.08,59.49,30l2.71.22L57.87,22l2.15.24h0l.26.35,40,10.69c-.72-2.87-1.33-5.51-2.06-8.14-.34-1.27-.18-2,1.34-1.84L102.8,23l8.58,7.92c-.34-1.32-.58-2.31-.83-3.3l.31-.19c1.28,1.58,2.55,3.14,3.81,4.72,1.69,2.1,3.34,4.23,5,6.32A9.64,9.64,0,0,0,121,39.53a8.06,8.06,0,0,0,.24,1.83c.56,1.45,1.21,2.87,1.84,4.31-.68.14-1.35.24-2,.39L107.26,49.2c-.66-.11-1.33-.2-2-.32L95.09,47.05l-1.4-1,8.69-5.39c-5.95-.4-11.5-.81-17.06-1.15-4.81-.28-9.68-.44-14.5-.73C69,38.62,67.15,38.3,65.27,38.08Z"/><path class="cls-3" d="M99.57,23.27c-1.52-.17-1.68.57-1.34,1.85.73,2.61,1.34,5.26,2.07,8.14L60.21,22.57,60,22.22h0q-.8-3.09-1.57-6.19c-.19-.69-.39-1.38-.64-2.3l3.68,1c-.68-2.57-1.31-4.87-2-7.42l2.61.9,4.86,2.29a2.84,2.84,0,0,0-1-3.66l.44-4.46,7.84,4.77c1,.67,2,1.34,3,2Q88.35,16.22,99.57,23.27Z"/><path class="cls-3" d="M133,66.34c-1.41,6.69-5.3,11.89-10.39,16.15-7.42,6.26-16.25,9.45-25.62,11.36-2.33.48-4.73.7-7.1,1L100,87.52a27.66,27.66,0,0,0-2.82-2.59c-1-.69-1-1.27-.48-2.25.92-1.77,1.68-3.62,2.51-5.42,3.34-1.63,6.67-3.27,10-4.86q10.16-4.79,20.34-9.49a12.52,12.52,0,0,1,1.55,1.19A27.08,27.08,0,0,1,133,66.34Z"/><path class="cls-4" d="M99.6,77c-.83,1.83-1.61,3.69-2.54,5.47-.51,1-.52,1.58.49,2.28a27,27,0,0,1,2.85,2.61L90.24,94.75a44.39,44.39,0,0,1-4.56.93c-5,.55-9.53,2.62-14.13,4.43a21.52,21.52,0,0,0-4.4,3c-3.25,2.39-6.47,4.81-9.8,7.3-.09-.5-.15-.88-.23-1.35l-2,.79-1-2c.88-.87,2-2,3.15-3.13,5.26-5.62,10.34-11.42,16-16.63,3.35-3.09,6.64-6.26,10-9.38l2.93.85C90.74,79.18,95.36,79.13,99.6,77Z"/><path class="cls-5" d="M95.09,47.05l10.12,1.82c.66.12,1.33.21,2,.32L124,56l-13,5.18-5-1.82c.15-3.21.29-6.42.45-10-.55.46-.77.62-1,.8l-13,12.7c-1.38,1.34-3,2.57-2.8,4.78l-9.33-3.24,1.26-1.37L75.3,59.73l1.76-1.13-6-3.13,2-1.17a22.91,22.91,0,0,0,2.32-.53Z"/><path class="cls-6" d="M95.1,47.05,75.46,53.77a22.68,22.68,0,0,1-2.31.52L70,50.4l1.73-.75-9.3-11.36,2.88-.21c1.85.23,3.69.55,5.55.67,4.82.3,9.68.45,14.51.73,5.55.35,11.1.75,17.06,1.15l-8.69,5.43Z"/><path class="cls-5" d="M123,45.63c-.62-1.44-1.28-2.86-1.83-4.32a8.06,8.06,0,0,1-.24-1.83c2.86-2.2,5.69-4.42,8.58-6.59a14.86,14.86,0,0,1,7.65-2.6,19,19,0,0,1,10,1.33q.27,3.06.56,6.12L144,38c.56-1,1.11-2.18,0-3.1a3.76,3.76,0,0,0-2.37-.93c-1.57,0-2.18,1.52-1.72,3.7l-11.56,3.17,6.42,8.85-7.66,2.34a1.14,1.14,0,0,1-.32.07Z"/><path class="cls-5" d="M99.57,23.27,77.14,9.12c-1-.64-2-1.31-3-2-.32-2.13-.63-4.25-1-6.66L86.56,10.59,88,5.89l14.77,17.05Z"/><path class="cls-6" d="M134.81,49.72c-2.11-2.89-4.21-5.8-6.42-8.85l11.55-3.17,2.09,1c1.07,3.49,2.17,6.94,1.68,10.72L143.36,53c-.19.46-.35.92-.54,1.38Z"/><path class="cls-7" d="M134.81,49.72l8,4.62-9.79,12c-.63-.78-1.23-1.58-1.92-2.3a11.72,11.72,0,0,0-1.54-1.19c.08-.37.34-.77.25-1.09-.86-3.24-1.77-6.47-2.67-9.7Z"/><path class="cls-8" d="M106.09,59.36l5,1.81c-.44.35-.84.77-1.29,1.08-3.29,2.28-6.65,4.44-9.86,6.82-4.75,3.49-9.34,7.12-14,10.68L83,78.93l6.65-8.15a20.3,20.3,0,0,0,2-1.28Q98.86,64.46,106.09,59.36Z"/><path class="cls-7" d="M106.09,59.36,91.67,69.52c-.65.45-1.34.85-2,1.26l.06-3.09c-.14-2.22,1.41-3.44,2.8-4.79q6.54-6.33,13.06-12.7c.19-.19.42-.34,1-.81C106.38,53,106.23,56.16,106.09,59.36Z"/><path class="cls-7" d="M143.35,53c.13-1.16.25-2.33.36-3.5a14.94,14.94,0,0,1,4.5-7.4l2-.92a12.47,12.47,0,0,1-.55,1.17q-2.61,4.56-5.27,9.11C144.09,52,143.7,52.47,143.35,53Z"/><path class="cls-9" d="M65.86,6.84A2.84,2.84,0,0,1,67,10.55L62.11,8.26V5.07Z"/><path class="cls-8" d="M148.22,42.1a14.93,14.93,0,0,0-4.51,7.34c.49-3.73-.61-7.23-1.68-10.72l1.51-.53a3.56,3.56,0,0,1,1-.2l3.26-.25C147.89,39.21,148.05,40.66,148.22,42.1Z"/><path class="cls-3" d="M123,45.63q1.92,3.24,3.82,6.51C125.9,53.42,125,54.71,124,56l-16.85-6.85L121,46.06C121.65,45.87,122.33,45.76,123,45.63Z"/><path class="cls-10" d="M60,22.22l.26.35Z"/><path class="cls-6" d="M124.05,56c.91-1.29,1.84-2.57,2.77-3.86a1,1,0,0,0,.33-.07c.9,3.23,1.81,6.46,2.67,9.7.08.32-.17.72-.25,1.09L109.25,72.4c-3.36,1.59-6.68,3.23-10,4.86-4.2,2.1-8.78,2.15-13.31,2.48,4.64-3.56,9.23-7.2,13.94-10.69,3.21-2.38,6.58-4.54,9.86-6.81A14.87,14.87,0,0,0,111,61.15Z"/><path class="cls-5" d="M144.51,38l-2.52.79-2.24-1.11c-.5-2.36.15-3.94,1.85-4a4.08,4.08,0,0,1,2.54,1A2.5,2.5,0,0,1,144.51,38Z"/><path class="cls-4" d="M26.08,144.5v11.75a14.38,14.38,0,0,1-5.41,4,13.79,13.79,0,0,1-2.41.77,14.76,14.76,0,0,1-3.11.36h-.09a14.85,14.85,0,0,1-3.12-.36,14.23,14.23,0,1,1,13.42-23.73l-4,3.62A8.82,8.82,0,1,0,20.67,154v-4.14H11.23v-5.4Z"/><path class="cls-4" d="M51.22,150.27a11.14,11.14,0,1,1-11.14-11.13,11.14,11.14,0,0,1,11.14,11.13Zm-11.14-5.73a5.74,5.74,0,1,0,5.74,5.73h0A5.73,5.73,0,0,0,40.08,144.54Z"/><path class="cls-4" d="M54.67,161.05V132.8h5.4v28.25Z"/><path class="cls-4" d="M74.64,139.14a10.06,10.06,0,0,1,2,.17l3.76,2.16V132.8h5.4v28.25h-5.4v-2l-3.76,2.17a10.88,10.88,0,0,1-2,.18,11.14,11.14,0,0,1,0-22.27ZM80.08,150a6.25,6.25,0,1,0,0,.19Z"/><path class="cls-4" d="M95.82,138.73v5.77h12.69v5.4H95.82v11.16h-5.4V133.32H110.3v5.4Z"/><path class="cls-4" d="M113.36,132.8h5.4v4.8h-5.4Zm5.4,6.68v21.57h-5.4V139.48Z"/><path class="cls-4" d="M132.55,139.2a12.26,12.26,0,0,1,1.36-.08,10.65,10.65,0,0,1,10.65,10.65h0V161h-5.4V149.8a5.26,5.26,0,0,0-10.51,0v11.25h-5.42V139.48h5.4v2Z"/><path class="cls-4" d="M158.63,156.05a5.74,5.74,0,0,0,4.22-1.86l4,3.64a11.14,11.14,0,1,1-.68-15.73c.24.22.46.44.68.68l-4,3.65a5.74,5.74,0,1,0-4.22,9.62Z"/><path class="cls-4" d="M179.18,139.2a10.24,10.24,0,0,1,1.36-.08,10.65,10.65,0,0,1,10.65,10.65h0V161h-5.4V149.8a5.26,5.26,0,0,0-10.51,0v11.25h-5.4V132.8h5.4v8.67Z"/></svg>